<svg width="546" height="173" viewBox="0 0 546 173" fill="none" xmlns="http://www.w3.org/2000/svg">
<path d="M66.5382 0.515625L17.6711 5.08594L16.5285 10.4473L20.3078 11.8535C24.4386 13.5234 25.4933 15.457 24.175 21.2578L0.62027 132H38.589L51.3332 71.9707C53.2668 62.4785 59.1554 56.4141 64.9562 56.4141C70.5812 56.4141 72.7785 61.1602 70.9328 69.5098L63.1105 107.391C59.3312 125.32 66.0988 133.494 81.0402 133.494C94.839 133.494 106.265 127.254 112.241 119.168L113.384 113.543C111.45 115.037 108.814 115.916 106.089 115.916C101.694 115.916 99.7609 113.016 101.255 105.896L108.286 72.498C112.857 51.3164 104.419 40.6816 85.9621 40.6816C70.5812 40.6816 57.3097 48.7676 52.0363 64.9395L66.5382 0.515625ZM167.67 133.934C201.507 133.934 225.062 112.137 225.062 82.166C225.062 57.5566 206.957 40.6816 180.589 40.6816C146.4 40.6816 123.197 62.6543 123.197 92.2734C123.197 116.883 141.214 133.934 167.67 133.934ZM168.285 126.639C163.187 126.639 160.462 121.365 160.462 109.676C160.462 87.791 167.757 47.8887 179.886 47.8887C185.072 47.8887 187.709 53.1621 187.709 64.8516C187.709 86.6484 180.414 126.639 168.285 126.639ZM236.193 99.6562C236.193 121.189 246.916 133.934 263.439 133.934C277.414 133.934 289.104 125.232 293.498 109.412C293.059 111.17 292.883 114.246 292.883 115.828C292.531 127.781 299.035 133.494 310.988 133.494C324.699 133.494 335.949 127.254 341.838 119.168L342.98 113.543C341.047 115.037 338.498 115.916 335.598 115.916C331.291 115.916 329.357 113.016 330.852 105.896L344.387 42.4395H319.426L306.33 53.6016C304.396 46.834 296.135 40.6816 283.566 40.6816C255.881 40.6816 236.193 65.9941 236.193 99.6562ZM274.777 104.314C274.777 85.0664 281.457 52.5469 295.695 52.5469C299.738 52.5469 302.375 54.832 303.254 57.7324L293.674 102.293C291.125 112.4 286.643 118.025 281.545 118.025C277.326 118.025 274.777 114.246 274.777 104.314ZM344.707 118.025C344.707 126.814 351.036 133.846 360.528 133.846C370.372 133.846 376.7 127.693 383.995 111.434L386.456 106.248L387.334 108.797C392.959 124.705 400.518 133.846 414.581 133.846C427.676 133.846 437.696 127.43 442.002 118.641L443.057 113.016C441.123 114.422 438.838 115.301 436.026 115.301C430.84 115.301 427.061 111.346 423.457 100.975L414.317 74.959L418.887 67.4883C420.293 65.0273 421.524 62.8301 422.754 60.9844C424.512 67.5762 430.489 72.3223 437.872 72.3223C447.012 72.3223 453.956 65.291 453.956 56.502C453.956 47.625 447.715 40.6816 438.135 40.6816C428.291 40.6816 421.963 47.0098 414.668 63.0059L412.032 68.543L402.539 41.3848L360.616 46.3945L359.473 51.9316L362.373 52.7227C367.383 54.3047 368.789 56.0625 370.811 61.8633L384.17 99.832L379.776 107.039C378.37 109.5 377.139 111.697 375.909 113.543C374.151 106.951 368.262 102.117 360.791 102.117C351.651 102.117 344.707 109.236 344.707 118.025ZM500.067 41.2969L456.034 46.3945L454.891 51.9316L457.44 52.7227C462.362 54.4805 463.153 56.0625 463.856 61.3359L474.227 149.402C464.999 155.994 445.048 165.662 433.534 170.496V172.342H468.427C472.47 165.926 477.128 159.686 482.665 153.182C490.927 143.777 500.858 132.264 508.417 123.211C531.972 94.998 545.507 70.3887 545.067 57.9082C544.804 47.0098 537.157 40.1543 526.962 40.2422C517.47 40.3301 509.735 47.3613 509.999 57.3809C510.35 66.9609 517.997 74.4316 527.313 74.3438C529.159 74.2559 530.917 73.9922 532.587 73.5527C528.016 86.2969 518.436 100.975 505.165 117.762L500.067 41.2969Z" fill="white"/>
</svg>
