<svg width="644" height="188" viewBox="0 0 644 188" fill="none" xmlns="http://www.w3.org/2000/svg">
<path d="M125.538 9.51562L76.6711 14.0859L75.5285 19.4473L79.3078 20.8535C83.4386 22.5234 84.4933 24.457 83.175 30.2578L59.6203 141H97.589L110.333 80.9707C112.267 71.4785 118.155 65.4141 123.956 65.4141C129.581 65.4141 131.778 70.1602 129.933 78.5098L122.111 116.391C118.331 134.32 125.099 142.494 140.04 142.494C153.839 142.494 165.265 136.254 171.241 128.168L172.384 122.543C170.45 124.037 167.814 124.916 165.089 124.916C160.694 124.916 158.761 122.016 160.255 114.896L167.286 81.498C171.857 60.3164 163.419 49.6816 144.962 49.6816C129.581 49.6816 116.31 57.7676 111.036 73.9395L125.538 9.51562ZM226.67 142.934C260.507 142.934 284.062 121.137 284.062 91.166C284.062 66.5566 265.957 49.6816 239.589 49.6816C205.4 49.6816 182.197 71.6543 182.197 101.273C182.197 125.883 200.214 142.934 226.67 142.934ZM227.285 135.639C222.187 135.639 219.462 130.365 219.462 118.676C219.462 96.791 226.757 56.8887 238.886 56.8887C244.072 56.8887 246.709 62.1621 246.709 73.8516C246.709 95.6484 239.414 135.639 227.285 135.639ZM295.193 108.656C295.193 130.189 305.916 142.934 322.439 142.934C336.414 142.934 348.104 134.232 352.498 118.412C352.059 120.17 351.883 123.246 351.883 124.828C351.531 136.781 358.035 142.494 369.988 142.494C383.699 142.494 394.949 136.254 400.838 128.168L401.98 122.543C400.047 124.037 397.498 124.916 394.598 124.916C390.291 124.916 388.357 122.016 389.852 114.896L403.387 51.4395H378.426L365.33 62.6016C363.396 55.834 355.135 49.6816 342.566 49.6816C314.881 49.6816 295.193 74.9941 295.193 108.656ZM333.777 113.314C333.777 94.0664 340.457 61.5469 354.695 61.5469C358.738 61.5469 361.375 63.832 362.254 66.7324L352.674 111.293C350.125 121.4 345.643 127.025 340.545 127.025C336.326 127.025 333.777 123.246 333.777 113.314ZM403.707 127.025C403.707 135.814 410.036 142.846 419.528 142.846C429.372 142.846 435.7 136.693 442.995 120.434L445.456 115.248L446.334 117.797C451.959 133.705 459.518 142.846 473.581 142.846C486.676 142.846 496.696 136.43 501.002 127.641L502.057 122.016C500.123 123.422 497.838 124.301 495.026 124.301C489.84 124.301 486.061 120.346 482.457 109.975L473.317 83.959L477.887 76.4883C479.293 74.0273 480.524 71.8301 481.754 69.9844C483.512 76.5762 489.489 81.3223 496.872 81.3223C506.012 81.3223 512.956 74.291 512.956 65.502C512.956 56.625 506.715 49.6816 497.135 49.6816C487.291 49.6816 480.963 56.0098 473.668 72.0059L471.032 77.543L461.539 50.3848L419.616 55.3945L418.473 60.9316L421.373 61.7227C426.383 63.3047 427.789 65.0625 429.811 70.8633L443.17 108.832L438.776 116.039C437.37 118.5 436.139 120.697 434.909 122.543C433.151 115.951 427.262 111.117 419.791 111.117C410.651 111.117 403.707 118.236 403.707 127.025ZM559.067 50.2969L515.034 55.3945L513.891 60.9316L516.44 61.7227C521.362 63.4805 522.153 65.0625 522.856 70.3359L533.227 158.402C523.999 164.994 504.048 174.662 492.534 179.496V181.342H527.427C531.47 174.926 536.128 168.686 541.665 162.182C549.927 152.777 559.858 141.264 567.417 132.211C590.972 103.998 604.507 79.3887 604.067 66.9082C603.804 56.0098 596.157 49.1543 585.962 49.2422C576.47 49.3301 568.735 56.3613 568.999 66.3809C569.35 75.9609 576.997 83.4316 586.313 83.3438C588.159 83.2559 589.917 82.9922 591.587 82.5527C587.016 95.2969 577.436 109.975 564.165 126.762L559.067 50.2969Z" fill="white"/>
<path d="M236.151 175.126C236.151 180.1 239.578 183.226 244.09 183.226C246.346 183.226 248.279 182.613 249.021 182.055L249.171 178.542H248.827C248.204 181.442 246.507 182.688 244.187 182.688C240.674 182.688 238.751 179.068 238.751 174.911C238.751 170.604 240.771 167.8 244.122 167.8C246.646 167.8 248.204 169.261 248.773 171.882H249.117L248.967 168.358C248.172 167.778 246.593 167.263 244.015 167.263C239.686 167.263 236.151 170.066 236.151 175.126ZM254.048 167.102L250.632 167.488V167.811L251.266 168.004C251.856 168.197 251.932 168.315 251.932 168.885V181.539C251.932 182.28 251.749 182.463 250.632 182.635V183H255.272V182.635C254.177 182.474 254.048 182.302 254.048 181.604V174.686C254.499 173.923 255.337 173.418 256.465 173.418C257.99 173.418 258.882 174.299 258.882 176.104V181.604C258.882 182.302 258.742 182.484 257.657 182.635V183H262.298V182.635C261.148 182.463 260.998 182.28 260.998 181.539V175.663C260.998 173.472 259.537 172.419 257.464 172.419C255.896 172.419 254.649 173.182 254.048 174.288V167.102ZM263.63 177.801C263.63 181.034 265.789 183.193 268.743 183.193C270.505 183.193 271.901 182.495 272.567 181.496V181.131C271.977 181.754 271.063 182.194 269.85 182.194C267.454 182.194 265.854 180.164 265.778 177.264H272.718C272.739 177.124 272.761 176.898 272.761 176.694C272.761 174.181 271.192 172.419 268.507 172.419C265.521 172.419 263.63 174.696 263.63 177.801ZM268.496 172.935C270 172.935 270.73 174.385 270.73 176.318C270.73 176.49 270.72 176.651 270.709 176.791L265.778 176.834C265.832 174.342 266.842 172.935 268.496 172.935ZM279.625 183.193C281.376 183.193 282.772 182.495 283.438 181.507V181.131C282.837 181.743 281.935 182.184 280.731 182.184C278.529 182.184 276.789 180.379 276.789 177.35C276.789 174.793 278.164 173.021 280.366 173.021C281.226 173.021 281.913 173.278 282.364 173.708C282.3 173.697 282.225 173.687 282.16 173.687C281.58 173.687 281.097 174.17 281.097 174.804C281.097 175.427 281.58 175.921 282.214 175.921C282.826 175.921 283.331 175.438 283.331 174.771C283.331 173.547 282.182 172.419 279.894 172.419C276.821 172.419 274.565 174.718 274.565 177.801C274.565 181.013 276.714 183.193 279.625 183.193ZM292.569 183H295.523V182.656C294.836 182.517 294.342 182.108 293.525 180.766L290.679 176.071L291.946 174.879C293.439 173.493 293.923 173.214 295.019 172.978V172.602H291.119V172.978C292.322 173.182 292.419 173.525 291.57 174.471L289.271 177.049L287.993 177.092V167.102L284.577 167.488V167.811L285.211 168.004C285.802 168.197 285.877 168.315 285.877 168.885V181.539C285.877 182.28 285.694 182.463 284.577 182.635V183H289.218V182.635C288.122 182.474 287.993 182.302 287.993 181.604V177.543L289.282 177.564L292.569 183ZM302.957 170.593C303.655 170.593 304.225 170.056 304.225 169.379C304.225 168.691 303.655 168.144 302.957 168.144C302.259 168.144 301.689 168.691 301.689 169.379C301.689 170.056 302.259 170.593 302.957 170.593ZM304.214 172.494L300.798 172.881V173.203L301.432 173.396C302.022 173.59 302.098 173.708 302.098 174.277V181.539C302.098 182.28 301.915 182.463 300.798 182.635V183H305.514V182.635C304.396 182.463 304.214 182.28 304.214 181.539V172.494ZM307.694 180.239C307.694 182.388 308.887 183.193 310.348 183.193C311.433 183.193 312.421 182.667 312.797 182.151V181.775C312.475 182.087 311.959 182.28 311.422 182.28C310.498 182.28 309.811 181.743 309.811 180.207V173.203L312.636 173.321V172.602L309.811 172.73V170.518H309.628L306.362 173.063V173.321H307.694V180.239ZM329.243 177.715C329.243 174.331 327.191 172.419 324.914 172.419C323.41 172.419 322.046 173.182 321.477 174.353L321.487 167.102L318.071 167.488V167.811L318.705 168.004C319.296 168.197 319.36 168.315 319.36 168.885V183H320.123L321.283 181.689C321.745 182.56 322.809 183.193 324.205 183.193C326.998 183.193 329.243 181.013 329.243 177.715ZM327.041 177.973C327.041 180.733 325.709 182.57 323.722 182.57C322.712 182.57 321.842 182.022 321.487 181.335V174.718C321.971 173.88 322.776 173.418 323.894 173.418C325.73 173.418 327.041 175.19 327.041 177.973ZM331.112 177.801C331.112 181.034 333.271 183.193 336.226 183.193C337.987 183.193 339.384 182.495 340.05 181.496V181.131C339.459 181.754 338.546 182.194 337.332 182.194C334.937 182.194 333.336 180.164 333.261 177.264H340.2C340.222 177.124 340.243 176.898 340.243 176.694C340.243 174.181 338.675 172.419 335.989 172.419C333.003 172.419 331.112 174.696 331.112 177.801ZM335.979 172.935C337.482 172.935 338.213 174.385 338.213 176.318C338.213 176.49 338.202 176.651 338.191 176.791L333.261 176.834C333.314 174.342 334.324 172.935 335.979 172.935ZM345.056 181.453V173.203L347.795 173.321V172.602L345.056 172.72V169.98C345.056 168.251 345.582 167.553 346.495 167.553C346.699 167.553 346.893 167.585 347.064 167.649C346.646 167.746 346.334 168.101 346.334 168.573C346.334 169.121 346.753 169.54 347.301 169.54C347.827 169.54 348.257 169.121 348.257 168.573C348.257 167.703 347.537 167.016 346.141 167.016C344.314 167.016 342.939 168.262 342.939 170.646V172.612L341.64 173.063V173.321H342.939V181.582C342.939 182.291 342.789 182.474 341.64 182.635V183H346.484V182.635C345.206 182.463 345.056 182.28 345.056 181.453ZM353.757 183.193C356.743 183.193 359.117 180.97 359.117 177.779C359.117 174.535 356.775 172.419 353.832 172.419C350.835 172.419 348.472 174.632 348.472 177.822C348.472 181.077 350.813 183.193 353.757 183.193ZM353.832 182.678C352.017 182.678 350.792 180.669 350.792 177.704C350.792 174.825 351.898 172.935 353.757 172.935C355.562 172.935 356.786 174.933 356.786 177.897C356.786 180.787 355.68 182.678 353.832 182.678ZM363.962 172.494L360.567 172.881V173.203L361.201 173.396C361.792 173.59 361.867 173.708 361.867 174.277V181.582C361.867 182.291 361.717 182.474 360.567 182.635V183H365.401V182.635C364.134 182.463 363.983 182.28 363.983 181.453V175.083C364.531 174.514 365.681 174.148 366.755 174.148C367.185 174.148 367.604 174.202 367.808 174.256C367.915 174.116 368.022 173.815 368.022 173.515C368.022 172.945 367.7 172.462 366.948 172.462C366.067 172.462 365.197 173.235 363.962 174.782V172.494ZM368.753 177.801C368.753 181.034 370.912 183.193 373.866 183.193C375.628 183.193 377.024 182.495 377.69 181.496V181.131C377.1 181.754 376.187 182.194 374.973 182.194C372.577 182.194 370.977 180.164 370.901 177.264H377.841C377.862 177.124 377.884 176.898 377.884 176.694C377.884 174.181 376.315 172.419 373.63 172.419C370.644 172.419 368.753 174.696 368.753 177.801ZM373.619 172.935C375.123 172.935 375.854 174.385 375.854 176.318C375.854 176.49 375.843 176.651 375.832 176.791L370.901 176.834C370.955 174.342 371.965 172.935 373.619 172.935ZM385.264 174.664L388.68 183C387.896 184.687 386.639 186.813 385.715 187.909V187.941H387.477L389.163 183.064L390.087 180.787L392.407 175.04C393.062 173.418 393.353 173.139 394.266 172.978V172.602H390.796V172.978C392.074 173.16 392.289 173.461 391.752 174.933L389.711 180.486L387.605 174.857C387.079 173.45 387.283 173.16 388.562 172.978V172.602H383.566V172.978C384.458 173.149 384.748 173.396 385.264 174.664ZM399.733 183.193C402.72 183.193 405.094 180.97 405.094 177.779C405.094 174.535 402.752 172.419 399.809 172.419C396.812 172.419 394.448 174.632 394.448 177.822C394.448 181.077 396.79 183.193 399.733 183.193ZM399.809 182.678C397.993 182.678 396.769 180.669 396.769 177.704C396.769 174.825 397.875 172.935 399.733 172.935C401.538 172.935 402.763 174.933 402.763 177.897C402.763 180.787 401.656 182.678 399.809 182.678ZM409.745 172.494L406.329 172.881V173.203L406.963 173.396C407.543 173.59 407.618 173.708 407.618 174.277V179.906C407.618 182.13 409.068 183.193 411.109 183.193C412.678 183.193 413.913 182.409 414.504 181.281V183.097L417.898 182.699V182.377L417.275 182.194C416.685 182.001 416.609 181.883 416.609 181.303V172.494L413.193 172.881V173.203L413.827 173.396C414.418 173.59 414.493 173.708 414.493 174.277V180.927C414.042 181.679 413.226 182.194 412.151 182.194C410.604 182.194 409.745 181.292 409.745 179.466V172.494ZM427.147 167.102L423.731 167.488V167.811L424.365 168.004C424.956 168.197 425.031 168.315 425.031 168.885V181.539C425.031 182.28 424.849 182.463 423.731 182.635V183H428.447V182.635C427.33 182.463 427.147 182.28 427.147 181.539V167.102ZM431.605 170.593C432.304 170.593 432.873 170.056 432.873 169.379C432.873 168.691 432.304 168.144 431.605 168.144C430.907 168.144 430.338 168.691 430.338 169.379C430.338 170.056 430.907 170.593 431.605 170.593ZM432.862 172.494L429.446 172.881V173.203L430.08 173.396C430.671 173.59 430.746 173.708 430.746 174.277V181.539C430.746 182.28 430.563 182.463 429.446 182.635V183H434.162V182.635C433.045 182.463 432.862 182.28 432.862 181.539V172.494ZM443.132 183H446.086V182.656C445.398 182.517 444.904 182.108 444.088 180.766L441.241 176.071L442.509 174.879C444.002 173.493 444.485 173.214 445.581 172.978V172.602H441.682V172.978C442.885 173.182 442.981 173.525 442.133 174.471L439.834 177.049L438.556 177.092V167.102L435.14 167.488V167.811L435.773 168.004C436.364 168.197 436.439 168.315 436.439 168.885V181.539C436.439 182.28 436.257 182.463 435.14 182.635V183H439.78V182.635C438.685 182.474 438.556 182.302 438.556 181.604V177.543L439.845 177.564L443.132 183ZM446.462 177.801C446.462 181.034 448.621 183.193 451.575 183.193C453.337 183.193 454.733 182.495 455.399 181.496V181.131C454.809 181.754 453.896 182.194 452.682 182.194C450.286 182.194 448.686 180.164 448.61 177.264H455.55C455.571 177.124 455.593 176.898 455.593 176.694C455.593 174.181 454.024 172.419 451.339 172.419C448.353 172.419 446.462 174.696 446.462 177.801ZM451.328 172.935C452.832 172.935 453.562 174.385 453.562 176.318C453.562 176.49 453.552 176.651 453.541 176.791L448.61 176.834C448.664 174.342 449.674 172.935 451.328 172.935ZM464.004 170.593C464.702 170.593 465.271 170.056 465.271 169.379C465.271 168.691 464.702 168.144 464.004 168.144C463.306 168.144 462.736 168.691 462.736 169.379C462.736 170.056 463.306 170.593 464.004 170.593ZM465.261 172.494L461.845 172.881V173.203L462.479 173.396C463.069 173.59 463.145 173.708 463.145 174.277V181.539C463.145 182.28 462.962 182.463 461.845 182.635V183H466.561V182.635C465.443 182.463 465.261 182.28 465.261 181.539V172.494ZM468.741 180.239C468.741 182.388 469.934 183.193 471.395 183.193C472.479 183.193 473.468 182.667 473.844 182.151V181.775C473.521 182.087 473.006 182.28 472.469 182.28C471.545 182.28 470.857 181.743 470.857 180.207V173.203L473.683 173.321V172.602L470.857 172.73V170.518H470.675L467.409 173.063V173.321H468.741V180.239ZM476.476 183.161C477.195 183.161 477.786 182.57 477.786 181.84C477.786 181.109 477.195 180.529 476.476 180.529C475.756 180.529 475.165 181.109 475.165 181.84C475.165 182.57 475.767 183.161 476.476 183.161Z" fill="white"/>
</svg>
