<svg width="644" height="215" viewBox="0 0 644 215" fill="none" xmlns="http://www.w3.org/2000/svg">
<path d="M144.67 54.9668L143.918 58.6191L131.887 62.5938L130.705 68.9316H142.629L127.053 169.264C123.83 190.318 118.674 201.598 107.502 203.639C112.121 200.738 115.236 195.582 115.236 189.674C115.236 180.328 107.824 172.594 98.8008 172.594C89.3477 172.594 81.7207 180.113 81.7207 189.889C81.7207 204.283 93.9668 214.703 111.262 214.703C143.381 214.703 168.41 195.367 180.549 121.891L189.465 67.2129L214.816 68.9316L217.502 56.6855L190.432 58.5117L193.117 41.9688C196.447 19.9473 203.322 11.7832 214.709 11.7832C209.23 14.5762 205.471 20.377 205.471 26.9297C205.471 36.168 212.99 43.6875 222.121 43.6875C231.682 43.6875 239.309 36.0605 239.309 26.6074C239.309 11.6758 224.055 0.933594 201.281 0.933594C173.029 0.933594 151.33 19.5176 144.67 54.9668ZM216.09 124.469C216.09 150.787 229.195 166.363 249.391 166.363C266.471 166.363 280.758 155.729 286.129 136.393C285.592 138.541 285.377 142.301 285.377 144.234C284.947 158.844 292.896 165.826 307.506 165.826C324.264 165.826 338.014 158.199 345.211 148.316L346.607 141.441C344.244 143.268 341.129 144.342 337.584 144.342C332.32 144.342 329.957 140.797 331.783 132.096L348.326 54.5371H317.818L301.812 68.1797C299.449 59.9082 289.352 52.3887 273.99 52.3887C240.152 52.3887 216.09 83.3262 216.09 124.469ZM263.248 130.162C263.248 106.637 271.412 66.8906 288.814 66.8906C293.756 66.8906 296.979 69.6836 298.053 73.2285L286.344 127.691C283.229 140.045 277.75 146.92 271.52 146.92C266.363 146.92 263.248 142.301 263.248 130.162ZM440.264 3.29688L380.43 8.88281L379.033 15.4355L383.76 17.1543C388.594 19.1953 389.883 21.5586 388.379 28.6484L365.82 133.922C361.094 155.836 369.473 165.826 387.842 165.826C404.707 165.826 418.779 158.199 425.977 148.316L427.373 141.441C425.01 143.268 421.895 144.342 418.457 144.342C413.086 144.342 410.723 140.797 412.549 132.096L440.264 3.29688ZM433.373 158.736L440.463 166.793L454.428 149.498L459.799 153.365C473.227 163.141 481.605 166.578 493.1 166.578C511.361 166.578 529.301 154.01 541.977 127.477L537.357 123.287C532.846 130.162 527.689 133.385 521.459 133.277C514.262 133.277 507.279 130.377 496 123.502L486.977 117.916L545.414 61.4121L546.811 54.5371H458.725L445.297 99.1172H451.527C455.287 90.7383 458.832 88.5898 469.252 88.5898H504.271L433.373 158.736Z" fill="white"/>
<path d="M244.211 185.9C244.211 190.471 247.512 193.254 251.477 193.254C253.469 193.254 255.334 192.668 256.125 192.072L256.252 188.996H255.715C255.148 191.545 253.723 192.424 251.633 192.424C248.566 192.424 246.574 189.504 246.574 185.666C246.574 181.975 248.42 179.475 251.613 179.475C253.771 179.475 255.109 180.49 255.656 182.785H256.184L256.066 179.709C255.266 179.123 253.684 178.645 251.447 178.645C247.404 178.645 244.211 181.311 244.211 185.9ZM260.998 178.508L257.736 178.898V179.406L258.439 179.582C258.996 179.738 259.074 179.865 259.074 180.383V191.516C259.074 192.131 258.908 192.287 257.736 192.424V193H262.248V192.424C261.135 192.287 260.998 192.15 260.998 191.564V185.373C261.389 184.738 262.17 184.25 263.273 184.25C264.689 184.25 265.549 185.09 265.549 186.711V191.564C265.549 192.15 265.412 192.287 264.299 192.424V193H268.811V192.424C267.619 192.287 267.482 192.131 267.482 191.516V186.223C267.482 184.23 266.115 183.156 264.152 183.156C262.688 183.156 261.564 183.82 260.998 184.758V178.508ZM270.188 188.225C270.188 191.281 272.229 193.195 274.963 193.195C276.594 193.195 277.893 192.58 278.557 191.73V191.154C277.971 191.73 277.023 192.102 275.998 192.102C273.742 192.102 272.238 190.412 272.15 187.854H278.732C278.752 187.697 278.762 187.463 278.762 187.248C278.762 184.768 277.316 183.166 274.758 183.166C272.023 183.166 270.188 185.266 270.188 188.225ZM274.738 183.957C276.145 183.957 276.906 185.109 276.906 186.984C276.906 187.053 276.906 187.111 276.906 187.17L272.16 187.189C272.277 185.031 273.283 183.957 274.738 183.957ZM285.324 193.195C286.955 193.195 288.244 192.58 288.908 191.74V191.154C288.312 191.721 287.385 192.102 286.369 192.102C284.191 192.102 282.648 190.461 282.648 187.834C282.648 185.461 283.986 183.986 285.842 183.986C286.535 183.986 287.082 184.123 287.482 184.406C287.014 184.484 286.652 184.924 286.652 185.451C286.652 186.047 287.111 186.525 287.727 186.525C288.322 186.525 288.801 186.057 288.801 185.412C288.801 184.211 287.756 183.156 285.559 183.156C282.844 183.156 280.617 185.158 280.617 188.225C280.617 191.232 282.668 193.195 285.324 193.195ZM297.707 193H300.354V192.463C299.67 192.316 299.182 191.945 298.43 190.725L295.998 186.799L297.014 185.842C298.645 184.338 299.074 184.104 300.07 183.938V183.352H296.086V183.938C297.287 184.094 297.424 184.367 296.574 185.285L294.67 187.346L293.342 187.355V178.508L290.08 178.898V179.406L290.783 179.582C291.34 179.738 291.418 179.865 291.418 180.383V191.516C291.418 192.131 291.252 192.287 290.08 192.424V193H294.592V192.424C293.479 192.287 293.342 192.15 293.342 191.564V188.049L294.68 188.059L297.707 193ZM307.766 181.33C308.439 181.33 308.977 180.812 308.977 180.148C308.977 179.484 308.439 178.977 307.766 178.977C307.092 178.977 306.555 179.484 306.555 180.148C306.555 180.812 307.092 181.33 307.766 181.33ZM308.928 183.254L305.666 183.635V184.143L306.369 184.318C306.926 184.475 307.004 184.592 307.004 185.119V191.516C307.004 192.131 306.838 192.287 305.666 192.424V193H310.256V192.424C309.084 192.287 308.928 192.131 308.928 191.516V183.254ZM312.492 190.363C312.492 192.492 313.723 193.195 315.051 193.195C316.018 193.195 317.033 192.775 317.453 192.336V191.76C317.111 192.004 316.584 192.189 316.047 192.189C315.109 192.189 314.416 191.672 314.416 190.061V184.162L317.297 184.23V183.352L314.416 183.439V181.506H314.143L311.203 183.83V184.23H312.492V190.363ZM333.176 188.068C333.176 184.963 331.311 183.156 329.201 183.156C327.795 183.156 326.516 183.84 325.988 184.855L325.998 178.508L322.736 178.898V179.406L323.439 179.582C323.986 179.738 324.064 179.865 324.064 180.383V193H324.699L325.676 191.848C326.174 192.6 327.229 193.195 328.527 193.195C331.125 193.195 333.176 191.125 333.176 188.068ZM331.174 188.273C331.174 190.773 329.924 192.355 328.117 192.355C327.111 192.355 326.33 191.857 325.998 191.291V185.432C326.418 184.67 327.209 184.25 328.244 184.25C329.982 184.25 331.174 185.793 331.174 188.273ZM335.051 188.225C335.051 191.281 337.092 193.195 339.826 193.195C341.457 193.195 342.756 192.58 343.42 191.73V191.154C342.834 191.73 341.887 192.102 340.861 192.102C338.605 192.102 337.102 190.412 337.014 187.854H343.596C343.615 187.697 343.625 187.463 343.625 187.248C343.625 184.768 342.18 183.166 339.621 183.166C336.887 183.166 335.051 185.266 335.051 188.225ZM339.602 183.957C341.008 183.957 341.77 185.109 341.77 186.984C341.77 187.053 341.77 187.111 341.77 187.17L337.023 187.189C337.141 185.031 338.146 183.957 339.602 183.957ZM348.381 191.408V184.162L351.096 184.23V183.352L348.381 183.42V181.467C348.381 179.855 348.889 179.201 349.689 179.201C349.797 179.201 349.895 179.211 349.992 179.23C349.797 179.387 349.68 179.631 349.68 179.904C349.68 180.432 350.07 180.832 350.598 180.832C351.096 180.832 351.506 180.432 351.506 179.904C351.506 179.094 350.783 178.459 349.475 178.459C347.766 178.459 346.457 179.66 346.457 182.014V183.361L345.119 183.83V184.23H346.457V191.525C346.457 192.141 346.311 192.287 345.119 192.424V193H349.855V192.424C348.527 192.287 348.381 192.15 348.381 191.408ZM356.682 193.195C359.504 193.195 361.672 191.125 361.672 188.146C361.672 185.178 359.553 183.156 356.809 183.156C353.986 183.156 351.828 185.227 351.828 188.215C351.828 191.174 353.947 193.195 356.682 193.195ZM356.809 192.404C355.119 192.404 353.918 190.686 353.918 188.049C353.918 185.539 354.943 183.957 356.682 183.957C358.371 183.957 359.572 185.666 359.572 188.303C359.572 190.822 358.547 192.404 356.809 192.404ZM366.408 183.254L363.186 183.635V184.143L363.889 184.318C364.445 184.475 364.523 184.592 364.523 185.119V191.525C364.523 192.141 364.377 192.287 363.186 192.424V193H367.912V192.424C366.594 192.287 366.447 192.15 366.447 191.408V185.754C366.945 185.197 368.127 184.816 369.191 184.816C369.582 184.816 369.953 184.855 370.148 184.914C370.256 184.768 370.344 184.494 370.344 184.221C370.344 183.674 370.051 183.195 369.309 183.195C368.449 183.195 367.58 183.898 366.408 185.285V183.254ZM371.105 188.225C371.105 191.281 373.146 193.195 375.881 193.195C377.512 193.195 378.811 192.58 379.475 191.73V191.154C378.889 191.73 377.941 192.102 376.916 192.102C374.66 192.102 373.156 190.412 373.068 187.854H379.65C379.67 187.697 379.68 187.463 379.68 187.248C379.68 184.768 378.234 183.166 375.676 183.166C372.941 183.166 371.105 185.266 371.105 188.225ZM375.656 183.957C377.062 183.957 377.824 185.109 377.824 186.984C377.824 187.053 377.824 187.111 377.824 187.17L373.078 187.189C373.195 185.031 374.201 183.957 375.656 183.957ZM387.053 185.49L390.08 192.922C389.318 194.465 388.264 196.369 387.561 197.453V197.492H389.25L390.842 193.02L391.613 191.145L393.869 185.637C394.436 184.25 394.66 184.084 395.588 183.938V183.352H391.994V183.938C393.273 184.064 393.498 184.309 393.039 185.5L391.037 190.695L389.084 185.471C388.654 184.309 388.859 184.074 390.129 183.938V183.352H385.422V183.938C386.32 184.113 386.574 184.328 387.053 185.49ZM400.822 193.195C403.645 193.195 405.812 191.125 405.812 188.146C405.812 185.178 403.693 183.156 400.949 183.156C398.127 183.156 395.969 185.227 395.969 188.215C395.969 191.174 398.088 193.195 400.822 193.195ZM400.949 192.404C399.26 192.404 398.059 190.686 398.059 188.049C398.059 185.539 399.084 183.957 400.822 183.957C402.512 183.957 403.713 185.666 403.713 188.303C403.713 190.822 402.688 192.404 400.949 192.404ZM410.344 183.254L407.082 183.635V184.143L407.785 184.318C408.332 184.475 408.42 184.592 408.42 185.119V190.07C408.42 192.111 409.758 193.195 411.691 193.195C413.156 193.195 414.26 192.502 414.816 191.545V193.098L418.049 192.707V192.209L417.355 192.023C416.799 191.877 416.721 191.75 416.721 191.223V183.254L413.459 183.635V184.143L414.162 184.318C414.709 184.475 414.787 184.592 414.787 185.119V190.979C414.406 191.613 413.645 192.102 412.629 192.102C411.174 192.102 410.344 191.252 410.344 189.592V183.254ZM427.131 178.518L423.869 178.898V179.406L424.572 179.582C425.129 179.738 425.207 179.865 425.207 180.383V191.516C425.207 192.131 425.041 192.287 423.869 192.424V193H428.459V192.424C427.287 192.287 427.131 192.131 427.131 191.516V178.518ZM431.633 181.33C432.307 181.33 432.844 180.812 432.844 180.148C432.844 179.484 432.307 178.977 431.633 178.977C430.959 178.977 430.422 179.484 430.422 180.148C430.422 180.812 430.959 181.33 431.633 181.33ZM432.795 183.254L429.533 183.635V184.143L430.236 184.318C430.793 184.475 430.871 184.592 430.871 185.119V191.516C430.871 192.131 430.705 192.287 429.533 192.424V193H434.123V192.424C432.951 192.287 432.795 192.131 432.795 191.516V183.254ZM442.805 193H445.451V192.463C444.768 192.316 444.279 191.945 443.527 190.725L441.096 186.799L442.111 185.842C443.742 184.338 444.172 184.104 445.168 183.938V183.352H441.184V183.938C442.385 184.094 442.521 184.367 441.672 185.285L439.768 187.346L438.439 187.355V178.508L435.178 178.898V179.406L435.881 179.582C436.438 179.738 436.516 179.865 436.516 180.383V191.516C436.516 192.131 436.35 192.287 435.178 192.424V193H439.689V192.424C438.576 192.287 438.439 192.15 438.439 191.564V188.049L439.777 188.059L442.805 193ZM446.086 188.225C446.086 191.281 448.127 193.195 450.861 193.195C452.492 193.195 453.791 192.58 454.455 191.73V191.154C453.869 191.73 452.922 192.102 451.896 192.102C449.641 192.102 448.137 190.412 448.049 187.854H454.631C454.65 187.697 454.66 187.463 454.66 187.248C454.66 184.768 453.215 183.166 450.656 183.166C447.922 183.166 446.086 185.266 446.086 188.225ZM450.637 183.957C452.043 183.957 452.805 185.109 452.805 186.984C452.805 187.053 452.805 187.111 452.805 187.17L448.059 187.189C448.176 185.031 449.182 183.957 450.637 183.957ZM463.02 181.33C463.693 181.33 464.23 180.812 464.23 180.148C464.23 179.484 463.693 178.977 463.02 178.977C462.346 178.977 461.809 179.484 461.809 180.148C461.809 180.812 462.346 181.33 463.02 181.33ZM464.182 183.254L460.92 183.635V184.143L461.623 184.318C462.18 184.475 462.258 184.592 462.258 185.119V191.516C462.258 192.131 462.092 192.287 460.92 192.424V193H465.51V192.424C464.338 192.287 464.182 192.131 464.182 191.516V183.254ZM467.746 190.363C467.746 192.492 468.977 193.195 470.305 193.195C471.271 193.195 472.287 192.775 472.707 192.336V191.76C472.365 192.004 471.838 192.189 471.301 192.189C470.363 192.189 469.67 191.672 469.67 190.061V184.162L472.551 184.23V183.352L469.67 183.439V181.506H469.396L466.457 183.83V184.23H467.746V190.363ZM475.461 193.156C476.164 193.156 476.73 192.57 476.73 191.867C476.73 191.154 476.164 190.588 475.461 190.588C474.768 190.588 474.201 191.154 474.201 191.867C474.201 192.57 474.777 193.156 475.461 193.156Z" fill="white"/>
</svg>
